<mxfile host="app.diagrams.net" modified="2023-06-16T06:20:03.287Z" agent="Mozilla/5.0 (Windows NT 10.0; Win64; x64) AppleWebKit/537.36 (KHTML, like Gecko) Chrome/114.0.0.0 Safari/537.36 Edg/114.0.1823.43" etag="5-nqoDlTumoZPN6sh_of" version="21.3.8" type="github">
  <diagram id="C5RBs43oDa-KdzZeNtuy" name="Page-1">
    <mxGraphModel dx="739" dy="470" grid="1" gridSize="10" guides="1" tooltips="1" connect="1" arrows="1" fold="1" page="1" pageScale="1" pageWidth="827" pageHeight="1169" math="0" shadow="0">
      <root>
        <mxCell id="WIyWlLk6GJQsqaUBKTNV-0" />
        <mxCell id="WIyWlLk6GJQsqaUBKTNV-1" parent="WIyWlLk6GJQsqaUBKTNV-0" />
        <mxCell id="_YQZrKHtRKiLLhqab8yD-16" style="edgeStyle=orthogonalEdgeStyle;rounded=0;orthogonalLoop=1;jettySize=auto;html=1;exitX=0.5;exitY=1;exitDx=0;exitDy=0;entryX=0.5;entryY=0;entryDx=0;entryDy=0;" edge="1" parent="WIyWlLk6GJQsqaUBKTNV-1" source="_YQZrKHtRKiLLhqab8yD-1" target="_YQZrKHtRKiLLhqab8yD-14">
          <mxGeometry relative="1" as="geometry" />
        </mxCell>
        <mxCell id="_YQZrKHtRKiLLhqab8yD-1" value="直属领导" style="rounded=1;whiteSpace=wrap;html=1;fontSize=12;glass=0;strokeWidth=1;shadow=0;" vertex="1" parent="WIyWlLk6GJQsqaUBKTNV-1">
          <mxGeometry x="179" y="160" width="120" height="40" as="geometry" />
        </mxCell>
        <mxCell id="_YQZrKHtRKiLLhqab8yD-2" style="edgeStyle=orthogonalEdgeStyle;rounded=0;orthogonalLoop=1;jettySize=auto;html=1;exitX=0.5;exitY=1;exitDx=0;exitDy=0;entryX=0.5;entryY=0;entryDx=0;entryDy=0;" edge="1" parent="WIyWlLk6GJQsqaUBKTNV-1" target="_YQZrKHtRKiLLhqab8yD-1">
          <mxGeometry relative="1" as="geometry">
            <mxPoint x="239" y="130" as="sourcePoint" />
          </mxGeometry>
        </mxCell>
        <mxCell id="_YQZrKHtRKiLLhqab8yD-3" value="开始" style="ellipse;whiteSpace=wrap;html=1;aspect=fixed;fillColor=#dae8fc;strokeColor=#6c8ebf;" vertex="1" parent="WIyWlLk6GJQsqaUBKTNV-1">
          <mxGeometry x="214" y="90" width="50" height="50" as="geometry" />
        </mxCell>
        <mxCell id="_YQZrKHtRKiLLhqab8yD-4" value="结束" style="ellipse;whiteSpace=wrap;html=1;aspect=fixed;fillColor=#d5e8d4;strokeColor=#82b366;" vertex="1" parent="WIyWlLk6GJQsqaUBKTNV-1">
          <mxGeometry x="214" y="450" width="50" height="50" as="geometry" />
        </mxCell>
        <mxCell id="_YQZrKHtRKiLLhqab8yD-5" style="edgeStyle=orthogonalEdgeStyle;rounded=0;orthogonalLoop=1;jettySize=auto;html=1;exitX=0.5;exitY=1;exitDx=0;exitDy=0;entryX=0.5;entryY=0;entryDx=0;entryDy=0;" edge="1" parent="WIyWlLk6GJQsqaUBKTNV-1" source="_YQZrKHtRKiLLhqab8yD-6" target="_YQZrKHtRKiLLhqab8yD-4">
          <mxGeometry relative="1" as="geometry" />
        </mxCell>
        <mxCell id="_YQZrKHtRKiLLhqab8yD-6" value="仓库主管" style="rounded=1;whiteSpace=wrap;html=1;fontSize=12;glass=0;strokeWidth=1;shadow=0;" vertex="1" parent="WIyWlLk6GJQsqaUBKTNV-1">
          <mxGeometry x="179" y="370" width="120" height="40" as="geometry" />
        </mxCell>
        <mxCell id="_YQZrKHtRKiLLhqab8yD-17" style="edgeStyle=orthogonalEdgeStyle;rounded=0;orthogonalLoop=1;jettySize=auto;html=1;exitX=0.5;exitY=1;exitDx=0;exitDy=0;entryX=0.5;entryY=0;entryDx=0;entryDy=0;" edge="1" parent="WIyWlLk6GJQsqaUBKTNV-1" source="_YQZrKHtRKiLLhqab8yD-14" target="_YQZrKHtRKiLLhqab8yD-15">
          <mxGeometry relative="1" as="geometry" />
        </mxCell>
        <mxCell id="_YQZrKHtRKiLLhqab8yD-14" value="直属领导" style="rounded=1;whiteSpace=wrap;html=1;fontSize=12;glass=0;strokeWidth=1;shadow=0;" vertex="1" parent="WIyWlLk6GJQsqaUBKTNV-1">
          <mxGeometry x="179" y="230" width="120" height="40" as="geometry" />
        </mxCell>
        <mxCell id="_YQZrKHtRKiLLhqab8yD-18" style="edgeStyle=orthogonalEdgeStyle;rounded=0;orthogonalLoop=1;jettySize=auto;html=1;exitX=0.5;exitY=1;exitDx=0;exitDy=0;entryX=0.5;entryY=0;entryDx=0;entryDy=0;" edge="1" parent="WIyWlLk6GJQsqaUBKTNV-1" source="_YQZrKHtRKiLLhqab8yD-15" target="_YQZrKHtRKiLLhqab8yD-6">
          <mxGeometry relative="1" as="geometry" />
        </mxCell>
        <mxCell id="_YQZrKHtRKiLLhqab8yD-15" value="生管" style="rounded=1;whiteSpace=wrap;html=1;fontSize=12;glass=0;strokeWidth=1;shadow=0;" vertex="1" parent="WIyWlLk6GJQsqaUBKTNV-1">
          <mxGeometry x="179" y="300" width="120" height="40" as="geometry" />
        </mxCell>
      </root>
    </mxGraphModel>
  </diagram>
</mxfile>
